<mxfile host="Electron" modified="2023-08-12T16:24:29.017Z" agent="Mozilla/5.0 (Macintosh; Intel Mac OS X 10_15_7) AppleWebKit/537.36 (KHTML, like Gecko) draw.io/21.6.1 Chrome/112.0.5615.204 Electron/24.6.1 Safari/537.36" etag="U5oWfJVM2Q0Wtwu4taoG" version="21.6.1" type="device">
  <diagram name="Page-1" id="_Q9GZ9CPquQKC6xEhxsN">
    <mxGraphModel dx="909" dy="674" grid="1" gridSize="10" guides="1" tooltips="1" connect="1" arrows="1" fold="1" page="1" pageScale="1" pageWidth="827" pageHeight="1169" math="0" shadow="0">
      <root>
        <mxCell id="0" />
        <mxCell id="1" parent="0" />
        <mxCell id="0T5pM6Y5D5rY4e13pUBA-67" value="" style="rounded=0;whiteSpace=wrap;html=1;" parent="1" vertex="1">
          <mxGeometry x="480" y="335.5" width="90" height="84.5" as="geometry" />
        </mxCell>
        <mxCell id="0T5pM6Y5D5rY4e13pUBA-4" style="rounded=0;orthogonalLoop=1;jettySize=auto;html=1;endArrow=classic;endFill=1;exitX=1;exitY=0.5;exitDx=0;exitDy=0;" parent="1" source="0T5pM6Y5D5rY4e13pUBA-1" edge="1">
          <mxGeometry relative="1" as="geometry">
            <mxPoint x="290.0022641509456" y="417.7075471698122" as="sourcePoint" />
            <mxPoint x="320" y="425" as="targetPoint" />
          </mxGeometry>
        </mxCell>
        <mxCell id="0T5pM6Y5D5rY4e13pUBA-1" value="&lt;font style=&quot;font-size: 15px;&quot;&gt;Summary&lt;/font&gt;" style="ellipse;whiteSpace=wrap;html=1;" parent="1" vertex="1">
          <mxGeometry x="180" y="400" width="100" height="50" as="geometry" />
        </mxCell>
        <mxCell id="0T5pM6Y5D5rY4e13pUBA-68" value="&lt;font style=&quot;font-size: 16px;&quot;&gt;Cosine Similarity Layer (1)&lt;/font&gt;" style="text;html=1;strokeColor=none;fillColor=none;align=center;verticalAlign=middle;whiteSpace=wrap;rounded=0;fontSize=14;" parent="1" vertex="1">
          <mxGeometry x="455" y="290" width="140" height="30" as="geometry" />
        </mxCell>
        <mxCell id="CQJqJF0PlVP-YLF-5X6d-3" value="&lt;font style=&quot;font-size: 16px;&quot;&gt;Score&lt;/font&gt;" style="ellipse;whiteSpace=wrap;html=1;" parent="1" vertex="1">
          <mxGeometry x="487.5" y="349" width="75" height="60" as="geometry" />
        </mxCell>
        <mxCell id="aTGz9FesERnNjyJ90T62-6" style="rounded=0;orthogonalLoop=1;jettySize=auto;html=1;exitX=1;exitY=0.5;exitDx=0;exitDy=0;entryX=0;entryY=0.25;entryDx=0;entryDy=0;" parent="1" source="aTGz9FesERnNjyJ90T62-5" edge="1">
          <mxGeometry relative="1" as="geometry">
            <mxPoint x="320" y="334.5" as="targetPoint" />
          </mxGeometry>
        </mxCell>
        <mxCell id="aTGz9FesERnNjyJ90T62-5" value="&lt;font style=&quot;font-size: 15px;&quot;&gt;Original Document&lt;/font&gt;" style="ellipse;whiteSpace=wrap;html=1;" parent="1" vertex="1">
          <mxGeometry x="180" y="310" width="100" height="50" as="geometry" />
        </mxCell>
        <mxCell id="AsTMAiLD-Jh-A46aVNmc-1" style="rounded=0;orthogonalLoop=1;jettySize=auto;html=1;exitX=1;exitY=0.5;exitDx=0;exitDy=0;entryX=0;entryY=0.5;entryDx=0;entryDy=0;" edge="1" parent="1" target="CQJqJF0PlVP-YLF-5X6d-3">
          <mxGeometry relative="1" as="geometry">
            <mxPoint x="441" y="335" as="sourcePoint" />
            <mxPoint x="481" y="334.5" as="targetPoint" />
            <Array as="points">
              <mxPoint x="460" y="335" />
            </Array>
          </mxGeometry>
        </mxCell>
        <mxCell id="0T5pM6Y5D5rY4e13pUBA-6" value="" style="rounded=0;whiteSpace=wrap;html=1;fillColor=#d5e8d4;strokeColor=#82b366;" parent="1" vertex="1">
          <mxGeometry x="320" y="260" width="120" height="230" as="geometry" />
        </mxCell>
        <mxCell id="0T5pM6Y5D5rY4e13pUBA-13" value="" style="shape=cube;whiteSpace=wrap;html=1;boundedLbl=1;backgroundOutline=1;darkOpacity=0.05;darkOpacity2=0.1;size=10;" parent="1" vertex="1">
          <mxGeometry x="360" y="280" width="40" height="40" as="geometry" />
        </mxCell>
        <mxCell id="0T5pM6Y5D5rY4e13pUBA-14" value="" style="shape=cube;whiteSpace=wrap;html=1;boundedLbl=1;backgroundOutline=1;darkOpacity=0.05;darkOpacity2=0.1;size=10;" parent="1" vertex="1">
          <mxGeometry x="360" y="330" width="40" height="40" as="geometry" />
        </mxCell>
        <mxCell id="0T5pM6Y5D5rY4e13pUBA-16" value="" style="shape=cube;whiteSpace=wrap;html=1;boundedLbl=1;backgroundOutline=1;darkOpacity=0.05;darkOpacity2=0.1;size=10;" parent="1" vertex="1">
          <mxGeometry x="360" y="430" width="40" height="40" as="geometry" />
        </mxCell>
        <mxCell id="0T5pM6Y5D5rY4e13pUBA-18" value="&lt;font style=&quot;font-size: 16px;&quot;&gt;BERT Model&lt;/font&gt;" style="text;html=1;strokeColor=none;fillColor=none;align=center;verticalAlign=middle;whiteSpace=wrap;rounded=0;fontSize=14;" parent="1" vertex="1">
          <mxGeometry x="310" y="220" width="140" height="30" as="geometry" />
        </mxCell>
        <mxCell id="AsTMAiLD-Jh-A46aVNmc-2" style="rounded=0;orthogonalLoop=1;jettySize=auto;html=1;exitX=1;exitY=0.5;exitDx=0;exitDy=0;entryX=0;entryY=0.5;entryDx=0;entryDy=0;" edge="1" parent="1" target="CQJqJF0PlVP-YLF-5X6d-3">
          <mxGeometry relative="1" as="geometry">
            <mxPoint x="440" y="425.5" as="sourcePoint" />
            <mxPoint x="480" y="425" as="targetPoint" />
            <Array as="points">
              <mxPoint x="460" y="426" />
            </Array>
          </mxGeometry>
        </mxCell>
        <mxCell id="0T5pM6Y5D5rY4e13pUBA-23" value="..." style="text;html=1;strokeColor=none;fillColor=none;align=center;verticalAlign=bottom;whiteSpace=wrap;rounded=0;fontSize=34;fontColor=#BDBDBD;labelPosition=center;verticalLabelPosition=middle;" parent="1" vertex="1">
          <mxGeometry x="350" y="385" width="60" height="30" as="geometry" />
        </mxCell>
      </root>
    </mxGraphModel>
  </diagram>
</mxfile>
